# Made in Blockbench 4.8.3
mtllib cactus_thorns.mtl

o mesh
v 0.5191803800744832 -0.0018925262297932177 0.49365699213537534
v 0.5191803800744832 -0.0018925262297932177 0.5170305059097497
v 0.4958068663001088 -0.0018925262297932177 0.49365699213537534
v 0.4958068663001088 -0.0018925262297932177 0.5170305059097497
v 0.5074936280744833 0.33808572991917313 0.5053437539097497
vt 0.2929375 0.7266250000000001
vt 0.2929375 0.75
vt 0.2695625 0.7266250000000001
vt 0.2695625 0.7266250000000001
vt 0.2929375 0.75
vt 0.2695625 0.75
vt 0.607590625 0.851625
vt 0.607590625 0.875
vt 0.267409375 0.8633125
vt 0.2673090186674008 0.9766387835110658
vt 0.6076909813325992 0.9766387835110659
vt 0.26811163262015225 1
vt 0.0429375 1
vt 0.0195625 1
vt 0.03125 0.65981875
vt 0.15625 0.96518125
vt 0.1445625 0.625
vt 0.16793750000000002 0.625
vn 0 -1 2.220446049250313e-16
vn 0 -1 2.220446049250313e-16
vn -0.9994097018448992 0.03435473560209752 -7.628283694071652e-18
vn 0.9994097028314316 0.03435470690298195 -7.628277321587873e-18
vn 0 0.03435470690298201 0.9994097028314316
vn 0 0.03435473560209731 -0.9994097018448992
usemtl m_77931132-d913-e3da-ca26-863e5892fabb
f 1/1/1 2/2/1 3/3/1
f 3/4/2 2/5/2 4/6/2
f 3/7/3 4/8/3 5/9/3
f 1/10/4 5/11/4 2/12/4
f 4/13/5 2/14/5 5/15/5
f 5/16/6 1/17/6 3/18/6